#N canvas 103 273 543 485 12;
#X declare -path ./pd-bloscabs;
#X obj 12 9 inlet;
#X obj 12 34 mtof;
#X obj 11 446 outlet~;
#X obj 14 378 *~;
#X obj 63 252 bng 15 250 50 0 empty empty empty 17 7 0 10 #fcfcfc #000000
#000000;
#X msg 63 269 1 5;
#X obj 105 267 del 10;
#X obj 105 285 pack 0 500;
#X obj 105 304 line~;
#X obj 105 327 *~;
#X obj 105 349 *~;
#X text 243 194 decay;
#X floatatom 245 212 5 0 0 0 - - - 0;
#X obj 309 176 loadbang;
#X msg 309 195 2000;
#X obj 39 68 b;
#X obj 174 11 declare -path ./pd-bloscabs;
#X obj 240 144 r trianglepoly_decay;
#X obj 12 111 bltriangle~;
#X connect 0 0 1 0;
#X connect 1 0 15 0;
#X connect 1 0 18 0;
#X connect 3 0 2 0;
#X connect 4 0 5 0;
#X connect 4 0 6 0;
#X connect 5 0 8 0;
#X connect 6 0 7 0;
#X connect 7 0 8 0;
#X connect 8 0 9 0;
#X connect 8 0 9 1;
#X connect 9 0 10 0;
#X connect 9 0 10 1;
#X connect 10 0 3 1;
#X connect 12 0 7 1;
#X connect 13 0 14 0;
#X connect 14 0 12 0;
#X connect 15 0 4 0;
#X connect 17 0 12 0;
#X connect 18 0 3 0;
