#N canvas 706 8 636 710 12;
#X text 11 16 algoholic;
#X text 69 135 complete list of available objects sorted by category
;
#X obj 21 138 mseq;
#X obj 20 165 randseq;
#X obj 20 243 playdir~;
#X text 15 107 control;
#X text 17 215 audio objects;
#X text 19 285 instruments;
#X text 539 421 m-onz.net;
#X text 566 401 m-onz;
#X obj 24 316 heavybass~;
#X obj 25 368 squarepoly~;
#X obj 25 422 hihat~;
#X obj 26 449 snare~;
#X obj 27 474 kick~;
#X obj 27 501 clap~;
#X obj 30 612 m-vj;
#X text 214 658 very little documentation yet sorry. More to come.
Right click to see help.;
#X text 12 36 algorithmic audio visual toolkit for pure data and GEM
;
#X obj 26 396 trianglepoly~;
#X obj 25 343 sawpoly~;
#X text 28 583 visuals. GEM;
