#N canvas 0 0 1440 797 12;
#X obj 22 441 dac~;
#X obj 21 411 *~ 0.9;
#X obj 59 222 trianglepoly~;
#X obj 76 254 re.spring~;
#X msg 58 158 57 \, 60 \, 64 \, 65;
#X obj 77 359 *~ 0.4;
#X obj 491 464 heavybass~, f 23;
#X floatatom 543 439 5 0 0 0 - - - 0;
#X floatatom 597 438 5 0 0 0 - - - 0;
#X floatatom 647 440 5 0 0 0 - - - 0;
#X obj 22 56 tgl 15 0 empty empty empty 17 7 0 10 #fcfcfc #000000 #000000
0 1;
#X obj 21 106 s pulse;
#X text 49 53 toggle me to start the example;
#X obj 319 221 mseq;
#X obj 367 161 bng 15 250 50 0 empty empty empty 17 7 0 10 #fcfcfc
#000000 #000000;
#X obj 368 188 randseq, f 24;
#X obj 423 131 unpack 0 0 0, f 17;
#X obj 419 71 loadbang;
#X obj 435 44 r newSequence;
#X obj 303 108 r pulse;
#X obj 371 220 list;
#X listbox 411 219 18 0 0 0 - - - 0;
#X obj 67 188 + 12;
#X obj 305 252 t b a;
#X obj 651 170 pdcontrol;
#X msg 651 142 dir;
#X obj 650 118 bng 15 250 50 0 empty empty empty 17 7 0 10 #fcfcfc
#000000 #000000;
#X obj 594 227 playdir~;
#X msg 651 201 \$1/sounds/kicks;
#X obj 707 97 mseq;
#X obj 707 122 b;
#X obj 687 59 r pulse;
#X obj 784 222 kick~;
#X obj 754 66 pipe 5000;
#X obj 754 36 loadbang;
#X obj 24 80 metro 210;
#X msg 422 100 3 3 8;
#X floatatom 497 365 5 0 0 0 - - - 0;
#X obj 783 251 *~ 0.8;
#X msg 760 108 2 - - - - - - -;
#X obj 923 260 pdcontrol;
#X msg 923 232 dir;
#X obj 922 208 bng 15 250 50 0 empty empty empty 17 7 0 10 #fcfcfc
#000000 #000000;
#X obj 866 317 playdir~;
#X obj 979 187 mseq;
#X obj 979 212 b;
#X obj 959 149 r pulse;
#X obj 1026 126 loadbang;
#X msg 923 291 \$1/sounds/snares;
#X obj 444 408 mseq;
#X obj 270 600 bng 15 250 50 0 empty empty empty 17 7 0 10 #fcfcfc
#000000 #000000;
#X obj 271 627 randseq, f 24;
#X obj 326 570 unpack 0 0 0, f 17;
#X obj 322 510 loadbang;
#X obj 270 474 r newSequence;
#X obj 421 384 r pulse;
#X obj 274 659 list;
#X listbox 314 658 44 0 0 0 - - - 0;
#X msg 172 20 - - -7 - - - -7 - - - -7 - - - -7 - - - 2 - - - 2 - -
- 9 - - - 9 -, f 71;
#X obj 494 398 + 40;
#X msg 560 530 -2 - - - -2 - - - -2 - - - -2 - 0 - -2 -3 -4 - -4 -
-4 - -2 - - - - - - -, f 74;
#X obj 979 44 loadbang;
#X obj 1113 396 pdcontrol;
#X msg 1113 368 dir;
#X obj 1112 344 bng 15 250 50 0 empty empty empty 17 7 0 10 #fcfcfc
#000000 #000000;
#X obj 1056 453 playdir~;
#X obj 1169 323 mseq;
#X obj 1169 348 b;
#X obj 1149 285 r pulse;
#X obj 1188 141 loadbang;
#X msg 1113 427 \$1/sounds/hihats;
#X obj 1188 171 pipe 5;
#X obj 1026 156 pipe 5;
#X msg 1050 202 - - - - 8 - - -;
#X obj 1195 647 pdcontrol;
#X msg 1195 619 dir;
#X obj 1194 595 bng 15 250 50 0 empty empty empty 17 7 0 10 #fcfcfc
#000000 #000000;
#X obj 1138 704 playdir~;
#X obj 1251 574 mseq;
#X obj 1251 599 b;
#X obj 1257 505 r pulse;
#X obj 1270 392 loadbang;
#X obj 1270 422 pipe 5;
#X msg 1322 589 0 0 0 0;
#X msg 1240 338 2 2 2 2;
#X obj 58 637 bng 15 250 50 0 empty empty empty 17 7 0 10 #fcfcfc #000000
#000000;
#X obj 59 664 randseq, f 24;
#X obj 114 607 unpack 0 0 0, f 17;
#X obj 110 547 loadbang;
#X obj 58 511 r newSequence;
#X obj 62 696 list;
#X listbox 102 695 37 0 0 0 - - - 0;
#X obj 210 287 s newSequence;
#X obj 208 264 bng 15 250 50 0 empty empty empty 17 7 0 10 #fcfcfc
#000000 #000000;
#X msg 325 539 11 300 16;
#X msg 113 576 21 300 16;
#X obj 208 188 random 100;
#X obj 208 238 sel 1;
#X obj 796 662 pdcontrol;
#X msg 796 634 dir;
#X obj 795 610 bng 15 250 50 0 empty empty empty 17 7 0 10 #fcfcfc
#000000 #000000;
#X obj 739 719 playdir~;
#X msg 796 693 \$1/sounds/fx;
#X floatatom 714 645 5 0 0 0 - - - 0;
#X obj 736 769 re.spring~;
#X obj 702 596 random 1000;
#X obj 641 690 bng 15 250 50 0 empty empty empty 17 7 0 10 #fcfcfc
#000000 #000000;
#X obj 641 614 random 100;
#X obj 641 664 sel 1;
#X obj 991 636 pdcontrol;
#X msg 991 608 dir;
#X obj 990 584 bng 15 250 50 0 empty empty empty 17 7 0 10 #fcfcfc
#000000 #000000;
#X obj 934 693 playdir~;
#X msg 991 667 \$1/sounds/misc;
#X floatatom 918 631 5 0 0 0 - - - 0;
#X floatatom 946 467 5 0 0 0 - - - 0;
#X obj 945 435 random 1000;
#X obj 739 744 *~ 0.6;
#X obj 946 410 bng 15 250 50 0 empty empty empty 17 7 0 10 #fcfcfc
#000000 #000000;
#X obj 946 334 random 100;
#X obj 946 384 sel 1;
#X obj 946 359 > 99;
#X msg 1195 678 \$1/sounds/rides;
#X obj 181 526 random 32;
#X obj 526 305 random 32;
#X msg 220 92 - - 11 -;
#X msg 141 94 - - 18 -;
#X msg 295 74 - - 15 -;
#X floatatom 163 261 5 0 0 0 - - - 0;
#X obj 96 73 metro 105;
#X obj 934 718 *~ 0.7;
#X obj 726 377 random 250;
#X obj 36 287 *~;
#X obj 67 289 tgl 15 0 empty empty empty 17 7 0 10 #fcfcfc #000000
#000000 0 1;
#X obj 390 434 *~;
#X obj 433 436 tgl 15 0 empty empty empty 17 7 0 10 #fcfcfc #000000
#000000 0 1;
#X obj 1138 729 *~ 0.5;
#X obj 1056 478 *~ 0.5;
#X obj 510 487 *~ 0.4;
#X obj 79 440 else/fbdelay~;
#X obj 79 466 else/ffdelay~;
#X obj 290 754 nbx 5 14 -1e+37 1e+37 0 0 empty empty empty 0 -8 0 10
#dcdcdc #000000 #000000 0 256;
#X obj 225 732 nbx 3 14 0 100 0 0 empty empty empty 0 -8 0 10 #dcdcdc
#000000 #000000 0 256;
#X text 268 731 Delay time (ms);
#X text 347 752 <= Feedback (Decay time in ms), f 11;
#X obj 161 777 else/fbdelay~ 100 3000;
#X obj 414 713 random 4000;
#X obj 193 495 random 11;
#X obj 70 322 *~;
#X obj 101 324 tgl 15 0 empty empty empty 17 7 0 10 #fcfcfc #000000
#000000 0 1;
#X obj 634 374 random 950;
#X obj 822 379 random 900;
#X msg 296 915 start;
#X msg 303 943 stop;
#X text 340 917 start streaming audio;
#X text 342 943 stop streaming audio;
#X obj 288 1036 writesf~ 2, f 15;
#X obj 136 297 random 550;
#X msg 328 835 open ./algoholic-dub3.wav;
#X obj 641 639 > 90;
#X obj 208 213 > 98;
#X connect 1 0 0 0;
#X connect 1 0 0 1;
#X connect 1 0 156 0;
#X connect 1 0 156 1;
#X connect 2 0 132 0;
#X connect 2 0 3 0;
#X connect 3 0 148 0;
#X connect 4 0 22 0;
#X connect 5 0 1 0;
#X connect 6 0 138 0;
#X connect 7 0 6 1;
#X connect 8 0 6 2;
#X connect 9 0 6 3;
#X connect 10 0 35 0;
#X connect 10 0 129 0;
#X connect 13 0 23 0;
#X connect 14 0 15 0;
#X connect 15 0 20 0;
#X connect 16 0 15 1;
#X connect 16 1 15 2;
#X connect 16 2 15 3;
#X connect 17 0 36 0;
#X connect 19 0 13 0;
#X connect 20 0 21 0;
#X connect 20 0 13 1;
#X connect 22 0 2 0;
#X connect 23 0 4 0;
#X connect 23 1 22 1;
#X connect 24 0 28 0;
#X connect 25 0 24 0;
#X connect 26 0 25 0;
#X connect 27 0 5 0;
#X connect 28 0 27 1;
#X connect 29 0 30 0;
#X connect 30 0 27 0;
#X connect 30 0 32 0;
#X connect 31 0 29 0;
#X connect 32 0 38 0;
#X connect 33 0 26 0;
#X connect 34 0 33 0;
#X connect 35 0 11 0;
#X connect 35 0 96 0;
#X connect 35 0 119 0;
#X connect 36 0 16 0;
#X connect 37 0 59 0;
#X connect 38 0 5 0;
#X connect 39 0 29 1;
#X connect 40 0 48 0;
#X connect 41 0 40 0;
#X connect 42 0 41 0;
#X connect 43 0 5 0;
#X connect 44 0 45 0;
#X connect 45 0 43 0;
#X connect 46 0 44 0;
#X connect 47 0 72 0;
#X connect 48 0 43 1;
#X connect 49 0 37 0;
#X connect 50 0 51 0;
#X connect 51 0 56 0;
#X connect 52 0 51 1;
#X connect 52 1 51 2;
#X connect 52 2 51 3;
#X connect 53 0 94 0;
#X connect 54 0 50 0;
#X connect 55 0 49 0;
#X connect 56 0 57 0;
#X connect 56 0 78 1;
#X connect 58 0 13 1;
#X connect 59 0 6 0;
#X connect 60 0 49 1;
#X connect 61 0 60 0;
#X connect 61 0 58 0;
#X connect 61 0 73 0;
#X connect 61 0 39 0;
#X connect 62 0 70 0;
#X connect 63 0 62 0;
#X connect 64 0 63 0;
#X connect 65 0 137 0;
#X connect 66 0 67 0;
#X connect 66 0 65 0;
#X connect 69 0 71 0;
#X connect 69 0 84 0;
#X connect 70 0 65 1;
#X connect 71 0 64 0;
#X connect 72 0 42 0;
#X connect 73 0 44 1;
#X connect 74 0 122 0;
#X connect 75 0 74 0;
#X connect 76 0 75 0;
#X connect 77 0 136 0;
#X connect 78 0 79 0;
#X connect 78 0 77 0;
#X connect 81 0 82 0;
#X connect 81 0 83 0;
#X connect 81 0 100 0;
#X connect 81 0 111 0;
#X connect 82 0 76 0;
#X connect 83 0 78 1;
#X connect 84 0 66 1;
#X connect 85 0 86 0;
#X connect 86 0 90 0;
#X connect 87 0 86 1;
#X connect 87 1 86 2;
#X connect 87 2 86 3;
#X connect 88 0 95 0;
#X connect 89 0 85 0;
#X connect 90 0 91 0;
#X connect 90 0 66 1;
#X connect 93 0 92 0;
#X connect 93 0 107 0;
#X connect 93 0 123 0;
#X connect 93 0 124 0;
#X connect 93 0 131 0;
#X connect 93 0 150 0;
#X connect 93 0 151 0;
#X connect 93 0 157 0;
#X connect 94 0 52 0;
#X connect 95 0 87 0;
#X connect 96 0 160 0;
#X connect 97 0 93 0;
#X connect 98 0 102 0;
#X connect 99 0 98 0;
#X connect 100 0 99 0;
#X connect 101 0 117 0;
#X connect 102 0 101 1;
#X connect 103 0 101 0;
#X connect 104 0 5 0;
#X connect 105 0 103 0;
#X connect 106 0 105 0;
#X connect 106 0 146 0;
#X connect 106 0 147 0;
#X connect 107 0 159 0;
#X connect 108 0 106 0;
#X connect 109 0 113 0;
#X connect 110 0 109 0;
#X connect 111 0 110 0;
#X connect 112 0 130 0;
#X connect 113 0 112 1;
#X connect 114 0 112 0;
#X connect 115 0 114 0;
#X connect 116 0 115 0;
#X connect 117 0 104 0;
#X connect 118 0 116 0;
#X connect 119 0 121 0;
#X connect 120 0 118 0;
#X connect 121 0 120 0;
#X connect 122 0 77 1;
#X connect 123 0 86 3;
#X connect 124 0 51 3;
#X connect 125 0 13 1;
#X connect 126 0 13 1;
#X connect 127 0 13 1;
#X connect 128 0 2 1;
#X connect 129 0 66 0;
#X connect 129 0 78 0;
#X connect 130 0 5 0;
#X connect 131 0 8 0;
#X connect 132 0 145 0;
#X connect 133 0 132 1;
#X connect 134 0 5 0;
#X connect 135 0 134 1;
#X connect 136 0 5 0;
#X connect 137 0 5 0;
#X connect 138 0 134 0;
#X connect 141 0 145 2;
#X connect 142 0 145 1;
#X connect 145 0 1 0;
#X connect 146 0 141 0;
#X connect 147 0 86 1;
#X connect 147 0 86 2;
#X connect 147 0 51 1;
#X connect 147 0 51 2;
#X connect 148 0 132 0;
#X connect 149 0 148 1;
#X connect 150 0 7 0;
#X connect 151 0 9 0;
#X connect 152 0 156 0;
#X connect 153 0 156 0;
#X connect 157 0 128 0;
#X connect 158 0 156 0;
#X connect 159 0 108 0;
#X connect 160 0 97 0;
