#N canvas 428 162 1438 797 12;
#X obj 22 553 heavybass~, f 23;
#X obj 14 719 dac~;
#X obj 23 680 *~ 0.5;
#X obj 22 56 tgl 15 0 empty empty empty 17 7 0 10 #fcfcfc #000000 #000000
0 1;
#X obj 23 396 mseq;
#X obj 63 315 bng 15 250 50 0 empty empty empty 17 7 0 10 #fcfcfc #000000
#000000;
#X obj 64 342 randseq, f 24;
#X text 82 308 generate the sequence;
#X obj 23 421 + 30;
#X obj 626 294 pdcontrol;
#X msg 626 266 dir;
#X obj 617 241 bng 15 250 50 0 empty empty empty 17 7 0 10 #fcfcfc
#000000 #000000;
#X obj 599 352 playdir~;
#X msg 626 325 \$1/sounds/hihats;
#X obj 865 316 pdcontrol;
#X msg 865 288 dir;
#X obj 864 264 bng 15 250 50 0 empty empty empty 17 7 0 10 #fcfcfc
#000000 #000000;
#X obj 838 374 playdir~;
#X msg 865 347 \$1/sounds/kicks;
#X obj 1066 500 pdcontrol;
#X msg 1066 472 dir;
#X obj 1065 448 bng 15 250 50 0 empty empty empty 17 7 0 10 #fcfcfc
#000000 #000000;
#X obj 1039 558 playdir~;
#X msg 1066 531 \$1/sounds/snares;
#X obj 652 175 mseq;
#X obj 1158 488 b;
#X obj 921 243 mseq;
#X obj 921 268 b;
#X msg 958 246 1 - - - 1 - - - - - 1 - - - - -;
#X msg 1184 435 - - - - 1 - - - - - - - 1 - - -;
#X obj 1158 463 mseq;
#X obj 24 80 metro 80;
#X obj 1201 514 random 100;
#X obj 1201 564 sel 1;
#X msg 170 682 start;
#X msg 177 710 stop;
#X obj 135 758 writesf~ 2, f 11;
#X msg 137 654 open ./m-onz-algo-dnb-example.wav;
#X obj 119 285 unpack 0 0 0, f 17;
#X obj 115 225 loadbang;
#X obj 27 650 catch~ example;
#X obj 596 484 throw~ example;
#X obj 835 404 throw~ example;
#X obj 1038 588 throw~ example;
#X obj 1201 592 s newSequence;
#X obj 63 189 r newSequence;
#X obj 1201 539 > 70;
#X obj 661 707 mseq;
#X obj 709 647 bng 15 250 50 0 empty empty empty 17 7 0 10 #fcfcfc
#000000 #000000;
#X obj 710 674 randseq, f 24;
#X obj 661 732 + 30;
#X obj 765 617 unpack 0 0 0, f 17;
#X obj 761 557 loadbang;
#X obj 709 521 r newSequence;
#X msg 118 254 7 2 32;
#X msg 764 586 7 11 64;
#X obj 1182 407 loadbang;
#X obj 950 182 loadbang;
#X obj 21 106 s pulse;
#X obj 652 14 r pulse;
#X obj 920 117 r pulse;
#X obj 1159 375 r pulse;
#X floatatom 74 528 5 0 0 0 - - - 0;
#X floatatom 128 527 5 0 0 0 - - - 0;
#X floatatom 178 529 5 0 0 0 - - - 0;
#X obj 85 464 random 200;
#X obj 86 415 r newSequence;
#X obj 86 440 b;
#X obj 164 463 random 200;
#X obj 243 462 random 200;
#X obj 631 675 r pulse;
#X obj 5 345 r pulse;
#X msg 678 147 11 - 11 -;
#X obj 191 417 loadbang;
#X obj 623 562 loadbang;
#X obj 624 589 pipe 11000;
#X text 49 53 toggle me to start the example;
#X obj 319 221 mseq;
#X obj 367 161 bng 15 250 50 0 empty empty empty 17 7 0 10 #fcfcfc
#000000 #000000;
#X obj 368 188 randseq, f 24;
#X obj 423 131 unpack 0 0 0, f 17;
#X obj 419 71 loadbang;
#X obj 367 35 r newSequence;
#X obj 280 183 r pulse;
#X msg 422 100 18 2 64;
#X obj 600 457 *~;
#X obj 615 436 tgl 15 0 empty empty empty 17 7 0 10 #fcfcfc #000000
#000000 0 1;
#X obj 50 625 *~;
#X obj 82 595 tgl 15 0 empty empty empty 17 7 0 10 #fcfcfc #000000
#000000 0 1;
#X obj 345 480 random 100;
#X obj 345 530 sel 1;
#X obj 345 505 > 20;
#X obj 72 374 list;
#X listbox 112 373 65 0 0 0 - - - 0;
#X obj 708 702 list;
#X listbox 748 701 92 0 0 0 - - - 0;
#X obj 371 220 list;
#X listbox 411 219 92 0 0 0 - - - 0;
#X text 1364 37 m-onz;
#X text 1281 57 https://m-onz.net;
#X text 1161 17 algoholic: algorithmic dnb example;
#X obj 597 381 *~ 0.4;
#X obj 22 578 *~ 0.63;
#X connect 0 0 102 0;
#X connect 2 0 1 0;
#X connect 2 0 1 1;
#X connect 2 0 36 0;
#X connect 2 0 36 1;
#X connect 3 0 31 0;
#X connect 4 0 8 0;
#X connect 5 0 6 0;
#X connect 6 0 4 1;
#X connect 6 0 92 0;
#X connect 8 0 0 0;
#X connect 9 0 13 0;
#X connect 10 0 9 0;
#X connect 11 0 10 0;
#X connect 12 0 101 0;
#X connect 13 0 12 1;
#X connect 14 0 18 0;
#X connect 15 0 14 0;
#X connect 16 0 15 0;
#X connect 17 0 42 0;
#X connect 18 0 17 1;
#X connect 19 0 23 0;
#X connect 20 0 19 0;
#X connect 21 0 20 0;
#X connect 22 0 43 0;
#X connect 23 0 22 1;
#X connect 24 0 12 0;
#X connect 25 0 22 0;
#X connect 26 0 27 0;
#X connect 27 0 17 0;
#X connect 28 0 26 1;
#X connect 29 0 30 1;
#X connect 30 0 25 0;
#X connect 30 1 32 0;
#X connect 31 0 58 0;
#X connect 32 0 46 0;
#X connect 33 0 44 0;
#X connect 34 0 36 0;
#X connect 35 0 36 0;
#X connect 37 0 36 0;
#X connect 38 0 6 1;
#X connect 38 1 6 2;
#X connect 38 2 6 3;
#X connect 39 0 54 0;
#X connect 40 0 2 0;
#X connect 45 0 5 0;
#X connect 46 0 33 0;
#X connect 47 0 50 0;
#X connect 48 0 49 0;
#X connect 49 0 47 1;
#X connect 49 0 94 0;
#X connect 50 0 0 0;
#X connect 51 0 49 1;
#X connect 51 1 49 2;
#X connect 51 2 49 3;
#X connect 52 0 55 0;
#X connect 53 0 48 0;
#X connect 54 0 38 0;
#X connect 55 0 51 0;
#X connect 56 0 29 0;
#X connect 56 0 21 0;
#X connect 57 0 28 0;
#X connect 57 0 16 0;
#X connect 57 0 11 0;
#X connect 57 0 72 0;
#X connect 59 0 24 0;
#X connect 60 0 26 0;
#X connect 61 0 30 0;
#X connect 62 0 0 1;
#X connect 63 0 0 2;
#X connect 64 0 0 3;
#X connect 65 0 62 0;
#X connect 66 0 67 0;
#X connect 67 0 65 0;
#X connect 67 0 68 0;
#X connect 67 0 69 0;
#X connect 68 0 63 0;
#X connect 69 0 64 0;
#X connect 70 0 47 0;
#X connect 71 0 4 0;
#X connect 72 0 24 1;
#X connect 73 0 67 0;
#X connect 74 0 75 0;
#X connect 75 0 48 0;
#X connect 77 0 12 0;
#X connect 78 0 79 0;
#X connect 79 0 77 1;
#X connect 79 0 96 0;
#X connect 80 0 79 1;
#X connect 80 1 79 2;
#X connect 80 2 79 3;
#X connect 81 0 84 0;
#X connect 82 0 78 0;
#X connect 82 0 86 0;
#X connect 82 0 89 0;
#X connect 83 0 77 0;
#X connect 84 0 80 0;
#X connect 85 0 41 0;
#X connect 86 0 85 1;
#X connect 87 0 2 0;
#X connect 88 0 87 1;
#X connect 89 0 91 0;
#X connect 90 0 88 0;
#X connect 91 0 90 0;
#X connect 92 0 93 0;
#X connect 94 0 95 0;
#X connect 96 0 97 0;
#X connect 101 0 85 0;
#X connect 102 0 87 0;
