#N canvas 174 88 667 545 12;
#X obj 185 269 print;
#X obj 157 82 bng 15 250 50 0 empty empty empty 17 7 0 10 #fcfcfc #000000
#000000;
#X floatatom 291 177 5 0 0 0 - - - 0;
#X floatatom 351 218 5 0 0 0 - - - 0;
#X obj 100 297 sequencer;
#X msg 213 135 41 55 60 63 68;
#X obj 176 242 constrainedseq, f 26;
#X obj 21 53 tgl 15 0 empty empty empty 17 7 0 10 #fcfcfc #000000 #000000
0 1;
#X obj 23 71 metro 50;
#X obj 93 330 mtof;
#X obj 93 355 osc~;
#X obj 96 447 *~ 0.3;
#X obj 93 479 dac~;
#X obj 93 406 *~;
#X obj 132 355 decay2~ 10 100;
#X obj 132 329 b;
#X text 144 9 clear sequence using rests;
#X msg 102 11 -;
#X text 177 78 generate a new sequence;
#X text 324 134 only these values will be used in the sequence;
#X text 398 219 length of sequence;
#X text 341 177 likeliness 0 is more 99 is least;
#X connect 1 0 6 0;
#X connect 2 0 6 2;
#X connect 3 0 6 3;
#X connect 4 0 9 0;
#X connect 4 0 15 0;
#X connect 5 0 6 1;
#X connect 6 0 0 0;
#X connect 6 0 4 1;
#X connect 7 0 8 0;
#X connect 8 0 4 0;
#X connect 9 0 10 0;
#X connect 10 0 13 0;
#X connect 11 0 12 0;
#X connect 11 0 12 1;
#X connect 13 0 11 0;
#X connect 14 0 13 1;
#X connect 15 0 14 0;
#X connect 17 0 4 1;
