#N canvas 50 22 495 670 12;
#X obj 33 264 osc~;
#X obj 33 241 +~;
#X floatatom 33 108 5 0 0 0 - - - 0;
#X obj 51 214 *~;
#X obj 52 188 osc~;
#X floatatom 52 162 5 0 0 0 - - - 0;
#X obj 32 83 mtof;
#X floatatom 92 265 5 0 0 0 - - - 0;
#X obj 52 135 * 4;
#X obj 49 331 bng 15 250 50 0 empty empty empty 17 7 0 10 #fcfcfc #000000
#000000;
#X msg 49 348 1 5;
#X obj 53 379 del 10;
#X obj 53 397 pack 0 500;
#X obj 53 416 line~;
#X obj 53 439 *~;
#X obj 53 461 *~;
#X floatatom 119 371 5 0 0 0 - - - 0;
#X floatatom 31 56 5 0 0 0 - - - 0;
#X obj 31 518 *~;
#X obj 80 107 b;
#X obj 31 576 outlet~;
#X obj 33 29 inlet;
#X obj 110 236 inlet;
#X obj 65 235 inlet;
#X obj 189 26 loadbang;
#X obj 32 290 vcf~ 5, f 18;
#X obj 30 546 expr~ tanh($v1 * $v2);
#X obj 172 519 sig~;
#X floatatom 172 495 5 0 0 0 - - - 0;
#X obj 156 238 inlet;
#X obj 189 78 unpack 0 0 0;
#X msg 189 53 130 172 17;
#X connect 0 0 25 0;
#X connect 1 0 0 0;
#X connect 2 0 1 0;
#X connect 2 0 8 0;
#X connect 3 0 1 1;
#X connect 4 0 3 0;
#X connect 5 0 4 0;
#X connect 5 0 3 1;
#X connect 6 0 2 0;
#X connect 6 0 19 0;
#X connect 7 0 25 1;
#X connect 8 0 5 0;
#X connect 9 0 10 0;
#X connect 9 0 11 0;
#X connect 10 0 13 0;
#X connect 11 0 12 0;
#X connect 12 0 13 0;
#X connect 13 0 14 0;
#X connect 13 0 14 1;
#X connect 14 0 15 0;
#X connect 14 0 15 1;
#X connect 15 0 18 1;
#X connect 16 0 12 1;
#X connect 17 0 6 0;
#X connect 18 0 26 0;
#X connect 19 0 9 0;
#X connect 21 0 17 0;
#X connect 22 0 7 0;
#X connect 23 0 16 0;
#X connect 24 0 31 0;
#X connect 25 0 18 0;
#X connect 26 0 20 0;
#X connect 27 0 26 1;
#X connect 28 0 27 0;
#X connect 29 0 28 0;
#X connect 30 0 7 0;
#X connect 30 1 16 0;
#X connect 30 2 28 0;
#X connect 31 0 30 0;
