#N canvas 59 259 450 455 12;
#X obj 47 82 random 30;
#X obj 47 107 + 30;
#X obj 47 57 metro 100;
#X obj 47 37 tgl 15 0 empty empty empty 17 7 0 10 #fcfcfc #000000 #000000
0 1;
#X floatatom 81 174 5 0 0 0 - - - 0;
#X floatatom 115 202 5 0 0 0 - - - 0;
#X floatatom 149 242 5 0 0 0 - - - 0;
#X obj 47 297 *~ 0.5;
#X obj 47 322 dac~;
#X obj 47 272 filtfm~, f 15;
#X connect 0 0 1 0;
#X connect 1 0 9 0;
#X connect 2 0 0 0;
#X connect 3 0 2 0;
#X connect 4 0 9 1;
#X connect 5 0 9 2;
#X connect 7 0 8 0;
#X connect 7 0 8 1;
#X connect 9 0 7 0;
