#N canvas 694 39 735 667 12;
#X obj 9 405 lop~ 80;
#X obj 10 431 lop~ 80;
#X obj 10 460 expr~ tanh($v1 * $v2);
#X obj 9 564 expr~ tanh($v1 * $v2);
#X obj 155 433 sig~;
#X floatatom 237 407 5 0 0 0 - - - 0;
#X obj 236 355 loadbang;
#X obj 8 377 *~;
#X obj 80 193 b;
#X obj 80 321 vline~;
#X obj 9 142 mtof;
#X obj 154 537 sig~;
#X floatatom 154 510 5 0 0 0 - - - 0;
#X msg 237 381 5.9;
#X obj 9 193 osc~;
#X obj 9 17 inlet;
#X obj 10 592 outlet~;
#X text 59 16 heavy bass;
#X obj 181 49 inlet;
#X obj 228 49 inlet;
#X obj 142 192 pack 0 0 0;
#X msg 142 217 0 \, 1 \$1 0 \, 0 \$2 \$3;
#X text 143 153 attack \, sustain \, release;
#X obj 274 52 inlet;
#X obj 385 78 loadbang;
#X obj 385 128 unpack 0 0 0, f 26;
#X msg 385 103 8 81 20;
#X connect 0 0 1 0;
#X connect 1 0 2 0;
#X connect 2 0 3 0;
#X connect 3 0 16 0;
#X connect 4 0 2 1;
#X connect 5 0 4 0;
#X connect 6 0 13 0;
#X connect 7 0 0 0;
#X connect 8 0 20 0;
#X connect 9 0 7 1;
#X connect 10 0 8 0;
#X connect 10 0 14 0;
#X connect 11 0 3 1;
#X connect 12 0 11 0;
#X connect 13 0 5 0;
#X connect 13 0 12 0;
#X connect 14 0 7 0;
#X connect 15 0 10 0;
#X connect 18 0 20 0;
#X connect 19 0 20 1;
#X connect 20 0 21 0;
#X connect 21 0 9 0;
#X connect 23 0 20 2;
#X connect 24 0 26 0;
#X connect 25 0 20 0;
#X connect 25 1 20 1;
#X connect 25 2 20 2;
#X connect 26 0 25 0;
