#N canvas 1 94 524 518 10;
#X msg 22 77 40;
#X obj 22 54 loadbang;
#N canvas 783 398 450 300 square 0;
#X obj 32 41 phasor~;
#X obj 32 64 expr~ if($v1>0.5 \, 1 \, 0);
#X obj 32 87 outlet~;
#X obj 32 18 inlet~;
#X connect 0 0 1 0;
#X connect 1 0 2 0;
#X connect 3 0 0 0;
#X restore 50 124 pd square;
#X obj 50 100 *~ 2, f 6;
#N canvas 783 398 450 300 square 0;
#X obj 32 41 phasor~;
#X obj 32 64 expr~ if($v1>0.5 \, 1 \, 0);
#X obj 32 87 outlet~;
#X obj 32 18 inlet~;
#X connect 0 0 1 0;
#X connect 1 0 2 0;
#X connect 3 0 0 0;
#X restore 50 178 pd square;
#X obj 50 155 *~ 3, f 6;
#X obj 167 180 bp~ 10000 20;
#X obj 167 203 hip~ 7000;
#X obj 167 226 hip~ 7000;
#X obj 167 249 hip~ 7000;
#X obj 167 272 hip~ 7000;
#N canvas 783 398 450 300 square 0;
#X obj 32 41 phasor~;
#X obj 32 64 expr~ if($v1>0.5 \, 1 \, 0);
#X obj 32 87 outlet~;
#X obj 32 18 inlet~;
#X connect 0 0 1 0;
#X connect 1 0 2 0;
#X connect 3 0 0 0;
#X restore 55 225 pd square;
#X obj 49 203 *~ 4.16;
#N canvas 783 398 450 300 square 0;
#X obj 32 41 phasor~;
#X obj 32 64 expr~ if($v1>0.5 \, 1 \, 0);
#X obj 32 87 outlet~;
#X obj 32 18 inlet~;
#X connect 0 0 1 0;
#X connect 1 0 2 0;
#X connect 3 0 0 0;
#X restore 58 268 pd square;
#X obj 49 250 *~ 5.43;
#N canvas 783 398 450 300 square 0;
#X obj 32 41 phasor~;
#X obj 32 64 expr~ if($v1>0.5 \, 1 \, 0);
#X obj 32 87 outlet~;
#X obj 32 18 inlet~;
#X connect 0 0 1 0;
#X connect 1 0 2 0;
#X connect 3 0 0 0;
#X restore 49 320 pd square;
#X obj 49 297 *~ 6.79;
#N canvas 783 398 450 300 square 0;
#X obj 32 41 phasor~;
#X obj 32 64 expr~ if($v1>0.5 \, 1 \, 0);
#X obj 32 87 outlet~;
#X obj 32 18 inlet~;
#X connect 0 0 1 0;
#X connect 1 0 2 0;
#X connect 3 0 0 0;
#X restore 48 366 pd square;
#X obj 48 343 *~ 8.12;
#X obj 203 344 *~;
#X obj 264 124 vline~;
#X obj 265 151 pow~ 4;
#X obj 206 61 bng 15 250 50 0 empty empty empty 17 7 0 10 #fcfcfc #000000
#000000;
#X obj 206 18 inlet;
#X obj 203 471 outlet~;
#X msg 232 96 1 2 \, 0 92 6;
#X obj 202 368 *~ 3;
#X connect 0 0 3 0;
#X connect 0 0 5 0;
#X connect 0 0 12 0;
#X connect 0 0 14 0;
#X connect 0 0 16 0;
#X connect 0 0 18 0;
#X connect 1 0 0 0;
#X connect 2 0 6 0;
#X connect 3 0 2 0;
#X connect 4 0 6 0;
#X connect 5 0 4 0;
#X connect 6 0 7 0;
#X connect 7 0 8 0;
#X connect 8 0 9 0;
#X connect 9 0 10 0;
#X connect 10 0 19 0;
#X connect 11 0 6 0;
#X connect 12 0 11 0;
#X connect 13 0 6 0;
#X connect 14 0 13 0;
#X connect 15 0 6 0;
#X connect 16 0 15 0;
#X connect 17 0 6 0;
#X connect 18 0 17 0;
#X connect 19 0 26 0;
#X connect 20 0 21 0;
#X connect 21 0 19 1;
#X connect 22 0 25 0;
#X connect 23 0 22 0;
#X connect 25 0 20 0;
#X connect 26 0 24 0;
