#N canvas 664 461 450 300 12;
#X obj 59 159 kick~;
#X obj 59 14 tgl 15 0 empty empty empty 17 7 0 10 #fcfcfc #000000 #000000
0 1;
#X obj 60 229 dac~;
#X obj 59 82 bng 15 250 50 0 empty empty empty 17 7 0 10 #fcfcfc #000000
#000000;
#X obj 59 35 metro 440;
#X obj 173 155 clap~;
#X obj 173 65 random 100;
#X obj 172 88 > 90;
#X obj 172 113 sel 1;
#X obj 173 137 bng 15 250 50 0 empty empty empty 17 7 0 10 #fcfcfc
#000000 #000000;
#X obj 59 201 *~ 0.9;
#X connect 0 0 10 0;
#X connect 1 0 4 0;
#X connect 3 0 0 0;
#X connect 3 0 6 0;
#X connect 4 0 3 0;
#X connect 5 0 10 0;
#X connect 6 0 7 0;
#X connect 7 0 8 0;
#X connect 8 0 9 0;
#X connect 9 0 5 0;
#X connect 10 0 2 0;
#X connect 10 0 2 1;
