#N canvas 12 418 644 587 10;
#X declare -lib Gem;
#X msg 10 161 create \, 1;
#X obj 9 186 gemwin;
#X obj 447 99 gemhead 5;
#X obj 446 122 world_light;
#X obj 12 263 gemhead 20;
#X obj 12 287 gemframebuffer;
#X obj 12 333 t a a b;
#X obj 12 310 translateXYZ 0 0 -4;
#X obj 93 242 loadbang;
#X obj 6 9 declare -lib Gem;
#X msg 93 262 dimen 1024 768;
#X msg 94 187 reset \, dimen 1024 768 \, create \, 1;
#X msg 91 141 destroy \, 1;
#X obj 12 542 pix_buffer \$0-framebuffer 2;
#X obj 12 357 t a b;
#X msg 44 378 snap;
#X obj 12 426 t a b;
#X msg 192 495 1;
#X obj 12 517 pix_buffer_write \$0-framebuffer;
#X obj 12 402 pix_snap 0 0 1024 768;
#X obj 103 376 outlet;
#X obj 333 140 gemhead 30;
#X obj 333 165 t a b;
#X msg 510 166 1;
#X obj 333 187 pix_buffer_read \$0-framebuffer;
#X obj 333 211 outlet;
#X obj 8 46 inlet;
#X obj 333 7 inlet;
#X obj 64 96 b;
#X msg 92 162 lighting 1;
#X obj 92 117 del 500;
#X obj 11 69 spigot 1;
#X obj 92 58 del 11;
#X msg 91 80 0;
#X obj 359 505 pix_texture;
#X obj 359 526 rectangle 5.36 4.02;
#X obj 359 473 r m-vj-out;
#X obj 231 255 vradio 15 1 0 3 empty empty empty 0 -8 0 10 #fcfcfc
#000000 #000000 0;
#X floatatom 231 306 5 0 0 0 - - - 0;
#X msg 231 327 reset \, fullscreen \$1 \, create \, 1;
#X text 253 252 deactivate fullscreen;
#X text 252 269 fullscreen on screen 1;
#X text 252 285 fullscreen on screen 2;
#X msg 244 382 0 \, destroy;
#N canvas 107 50 450 300 esc 0;
#X obj 65 20 gemkeyboard;
#X obj 65 167 outlet;
#X obj 89 71 keyname;
#X obj 128 96 sel Escape;
#X obj 65 41 sel 53;
#X obj 189 47 sel Escape;
#X obj 150 22 gemkeyname;
#X connect 0 0 4 0;
#X connect 2 1 3 0;
#X connect 3 0 1 0;
#X connect 4 0 1 0;
#X connect 5 0 1 0;
#X connect 6 1 5 0;
#X restore 244 360 pd esc;
#X text 427 267 press ESC to quit;
#X connect 0 0 1 0;
#X connect 2 0 3 0;
#X connect 4 0 5 0;
#X connect 5 0 7 0;
#X connect 6 0 14 0;
#X connect 6 1 20 0;
#X connect 7 0 6 0;
#X connect 8 0 10 0;
#X connect 10 0 5 0;
#X connect 11 0 1 0;
#X connect 12 0 1 0;
#X connect 14 0 19 0;
#X connect 14 1 15 0;
#X connect 15 0 19 0;
#X connect 16 0 18 0;
#X connect 16 1 17 0;
#X connect 17 0 18 1;
#X connect 19 0 16 0;
#X connect 21 0 22 0;
#X connect 22 0 24 0;
#X connect 22 1 23 0;
#X connect 23 0 24 1;
#X connect 24 0 25 0;
#X connect 26 0 31 0;
#X connect 27 0 21 0;
#X connect 27 0 4 0;
#X connect 27 0 2 0;
#X connect 28 0 11 0;
#X connect 28 0 30 0;
#X connect 28 0 32 0;
#X connect 29 0 1 0;
#X connect 30 0 29 0;
#X connect 31 0 28 0;
#X connect 32 0 33 0;
#X connect 33 0 31 1;
#X connect 34 0 35 0;
#X connect 36 0 34 0;
#X connect 37 0 38 0;
#X connect 38 0 39 0;
#X connect 39 0 1 0;
#X connect 43 0 1 0;
#X connect 44 0 43 0;
