#N canvas 14 163 678 556 12;
#X obj 32 345 route symbol float;
#X obj 31 26 inlet;
#X obj 93 373 outlet;
#X obj 32 52 bang;
#X obj 32 77 list store;
#X obj 198 15 inlet;
#X obj 231 57 r \$0-rest;
#X obj 32 162 list split 1;
#X obj 72 253 s \$0-rest;
#X obj 231 313 outlet;
#X obj 231 262 list length;
#X obj 231 287 sel 0;
#X obj 137 186 list store;
#X connect 0 1 2 0;
#X connect 1 0 3 0;
#X connect 3 0 4 0;
#X connect 4 0 7 0;
#X connect 5 0 4 1;
#X connect 5 0 12 1;
#X connect 6 0 4 1;
#X connect 6 0 10 0;
#X connect 7 0 0 0;
#X connect 7 1 8 0;
#X connect 10 0 11 0;
#X connect 11 0 9 0;
#X connect 11 0 12 0;
#X connect 12 0 4 1;
