#N canvas 599 46 731 701 12;
#X obj 67 598 list store;
#X obj 68 66 bng 15 250 50 0 empty empty empty 17 7 0 10 #fcfcfc #000000
#000000;
#X obj 205 144 until;
#X obj 205 172 f;
#X obj 243 171 + 1;
#X obj 288 170 sel 0;
#X obj 243 197 mod 10;
#X msg 190 430 set \$1 \$2;
#X obj 243 377 random 100;
#X obj 192 405 pack 0 0;
#X obj 206 266 random 8;
#X obj 205 235 t b b;
#X obj 205 205 b;
#X msg 205 115 \$1;
#X obj 67 623 route list;
#X floatatom 395 61 5 0 0 0 - - - 0;
#X obj 205 88 i;
#X floatatom 222 60 5 0 0 0 - - - 0;
#X text 264 60 iterations;
#X text 438 56 random max;
#X text 91 57 generate;
#X obj 67 648 outlet;
#X obj 68 29 inlet;
#X obj 221 34 inlet;
#X obj 394 33 inlet;
#X floatatom 573 60 5 0 0 0 - - - 0;
#X obj 572 32 inlet;
#X text 616 55 seq length;
#X obj 557 168 until;
#X obj 557 196 f;
#X obj 595 195 + 1;
#X obj 640 194 sel 0;
#X obj 595 221 mod 10;
#X obj 557 229 b;
#X obj 554 287 list store;
#X obj 633 122 loadbang;
#X msg 634 154 8;
#X obj 517 232 bng 15 250 50 0 empty empty empty 17 7 0 10 #fcfcfc
#000000 #000000;
#X obj 526 125 pipe 1;
#X msg 630 257 bang;
#X msg 557 256 append -;
#X obj 507 391 route list;
#X obj 92 113 t b b;
#X text 282 295 constrained seq is the same;
#X text 288 315 but you choose from a list;
#X text 260 335 of numbers instead of randomly;
#X msg 86 146 bang;
#X obj 301 -63 loadbang;
#X msg 301 -37 8 64 16;
#X obj 301 -12 unpack 0 0 0;
#X connect 0 0 14 0;
#X connect 1 0 0 0;
#X connect 1 0 42 0;
#X connect 1 0 46 0;
#X connect 2 0 3 0;
#X connect 3 0 4 0;
#X connect 3 0 12 0;
#X connect 4 0 6 0;
#X connect 5 0 2 1;
#X connect 6 0 3 1;
#X connect 6 0 5 0;
#X connect 7 0 0 0;
#X connect 8 0 9 1;
#X connect 9 0 7 0;
#X connect 10 0 9 0;
#X connect 11 0 10 0;
#X connect 11 1 8 0;
#X connect 12 0 11 0;
#X connect 13 0 2 0;
#X connect 14 0 21 0;
#X connect 15 0 8 1;
#X connect 16 0 13 0;
#X connect 17 0 16 1;
#X connect 17 0 6 1;
#X connect 22 0 1 0;
#X connect 23 0 17 0;
#X connect 24 0 15 0;
#X connect 25 0 32 1;
#X connect 25 0 10 1;
#X connect 25 0 38 0;
#X connect 25 0 39 0;
#X connect 26 0 25 0;
#X connect 28 0 29 0;
#X connect 29 0 30 0;
#X connect 29 0 33 0;
#X connect 30 0 32 0;
#X connect 31 0 28 1;
#X connect 32 0 29 1;
#X connect 32 0 31 0;
#X connect 33 0 40 0;
#X connect 34 0 41 0;
#X connect 35 0 36 0;
#X connect 36 0 25 0;
#X connect 37 0 34 0;
#X connect 38 0 28 0;
#X connect 39 0 34 1;
#X connect 40 0 34 0;
#X connect 41 0 0 1;
#X connect 42 0 16 0;
#X connect 42 1 37 0;
#X connect 46 0 0 0;
#X connect 46 0 34 0;
#X connect 47 0 48 0;
#X connect 48 0 49 0;
#X connect 49 0 17 0;
#X connect 49 1 15 0;
#X connect 49 2 25 0;
