#N canvas 393 245 758 525 12;
#X floatatom 66 353 5 0 0 0 - - - 0;
#X msg 66 221 60 \, 62 \, 65 \, 67;
#X obj 68 402 *~ 0.22;
#X floatatom 365 224 5 0 0 0 - - - 0;
#X msg 180 220 60 \, 63 \, 65 \, 67;
#X obj 67 462 dac~;
#X obj 66 139 random 2;
#X obj 66 164 sel 0 1, f 33;
#X obj 66 38 metro 200;
#X obj 66 16 tgl 15 0 empty empty empty 17 7 0 10 #fcfcfc #000000 #000000
0 1;
#X obj 367 148 f 0;
#X obj 366 199 + 100;
#X obj 67 376 sawpoly~;
#X obj 180 381 sawpoly~;
#X obj 401 146 + 1;
#X obj 366 174 % 650;
#X connect 0 0 12 0;
#X connect 1 0 0 0;
#X connect 2 0 5 0;
#X connect 2 0 5 1;
#X connect 3 0 12 1;
#X connect 4 0 13 0;
#X connect 6 0 7 0;
#X connect 7 0 1 0;
#X connect 7 1 4 0;
#X connect 8 0 6 0;
#X connect 8 0 10 0;
#X connect 9 0 8 0;
#X connect 10 0 14 0;
#X connect 10 0 15 0;
#X connect 11 0 3 0;
#X connect 12 0 2 0;
#X connect 13 0 2 0;
#X connect 14 0 10 1;
#X connect 15 0 11 0;
