#N canvas 0 0 450 300 12;
#X obj 122 82 snare~;
#X obj 122 142 dac~;
#X obj 120 58 bng 15 250 50 0 empty empty empty 17 7 0 10 #fcfcfc #000000
#000000;
#X connect 0 0 1 0;
#X connect 0 0 1 1;
#X connect 2 0 0 0;
