#N canvas 67 94 450 339 10;
#X obj 15 102 vline~;
#X obj 118 102 vline~;
#X obj 203 102 vline~;
#X obj 15 140 osc~;
#X obj 117 139 pow~ 4;
#X obj 202 141 pow~ 1.6;
#X obj 122 192 noise~;
#X msg 116 78 1 4 \, 0 200 4;
#X msg 15 78 400 4 \, 200 20 4;
#X msg 202 78 0.4 4 \, 0 100 5;
#X obj 121 214 *~;
#X obj 15 205 *~;
#X obj 16 285 outlet~;
#X obj 16 262 *~ 0.7;
#X obj 25 20 inlet;
#X obj 25 43 t b b b, f 33;
#X connect 0 0 3 0;
#X connect 1 0 4 0;
#X connect 2 0 5 0;
#X connect 3 0 11 0;
#X connect 4 0 11 1;
#X connect 5 0 10 1;
#X connect 6 0 10 0;
#X connect 7 0 1 0;
#X connect 8 0 0 0;
#X connect 9 0 2 0;
#X connect 10 0 13 0;
#X connect 11 0 13 0;
#X connect 13 0 12 0;
#X connect 14 0 15 0;
#X connect 15 0 8 0;
#X connect 15 1 7 0;
#X connect 15 2 9 0;
