#N canvas 272 151 897 612 12;
#X floatatom 66 353 5 0 0 0 - - - 0;
#X msg 66 221 60 \, 62 \, 65 \, 67;
#X obj 58 477 *~ 0.22;
#X floatatom 349 170 5 0 0 0 - - - 0;
#X msg 180 220 60 \, 63 \, 65 \, 67;
#X obj 386 94 + 1;
#X obj 46 510 dac~;
#X obj 66 139 random 2;
#X obj 66 164 sel 0 1, f 33;
#X obj 66 38 metro 200;
#X obj 66 16 tgl 15 0 empty empty empty 17 7 0 10 #fcfcfc #000000 #000000
0 1;
#X obj 352 94 f 0;
#X obj 351 120 % 250;
#X obj 351 145 + 100;
#X obj 66 381 trianglepoly~;
#X obj 208 376 trianglepoly~;
#X floatatom 210 350 5 0 0 0 - - - 0;
#X msg 455 303 51;
#X msg 495 303 55;
#X msg 544 303 53;
#X msg 589 303 58;
#X obj 458 250 random 4;
#X obj 460 275 sel 0 1 2 3, f 25;
#X obj 459 175 random 100;
#X obj 459 200 > 90;
#X obj 459 225 sel 1;
#X obj 503 229 bng 15 250 50 0 empty empty empty 17 7 0 10 #fcfcfc
#000000 #000000;
#X msg 468 442 start;
#X msg 475 470 stop;
#X text 512 444 start streaming audio;
#X text 514 470 stop streaming audio;
#X obj 460 563 writesf~ 2, f 15;
#X msg 428 363 open ./trianglepoly~-help.wav;
#X connect 0 0 14 0;
#X connect 1 0 0 0;
#X connect 2 0 6 1;
#X connect 2 0 6 0;
#X connect 2 0 31 0;
#X connect 2 0 31 1;
#X connect 3 0 14 1;
#X connect 4 0 0 0;
#X connect 5 0 11 1;
#X connect 7 0 8 0;
#X connect 8 0 1 0;
#X connect 8 1 4 0;
#X connect 9 0 7 0;
#X connect 9 0 11 0;
#X connect 9 0 16 0;
#X connect 9 0 23 0;
#X connect 10 0 9 0;
#X connect 11 0 5 0;
#X connect 11 0 12 0;
#X connect 12 0 13 0;
#X connect 13 0 3 0;
#X connect 14 0 2 0;
#X connect 15 0 2 0;
#X connect 16 0 15 0;
#X connect 17 0 16 0;
#X connect 18 0 16 0;
#X connect 19 0 16 0;
#X connect 20 0 16 0;
#X connect 21 0 22 0;
#X connect 22 0 17 0;
#X connect 22 1 18 0;
#X connect 22 2 19 0;
#X connect 22 3 20 0;
#X connect 23 0 24 0;
#X connect 24 0 25 0;
#X connect 25 0 21 0;
#X connect 25 0 26 0;
#X connect 27 0 31 0;
#X connect 28 0 31 0;
#X connect 32 0 31 0;
