#N canvas 736 165 418 329 12;
#X obj 32 31 loadbang;
#X msg 92 100 \; pd dsp 1;
#X obj 32 74 t b b, f 9;
#X obj 32 148 t f b, f 20;
#X msg 167 176 open test.wav \, start;
#X obj 167 271 writesf~ 2;
#X obj 183 205 noise~;
#X obj 247 205 noise~;
#X obj 32 173 delay;
#X obj 32 198 t b b, f 13;
#X msg 120 226 stop;
#X msg 32 258 \; pd quit;
#X obj 182 238 *~ 0.1;
#X obj 248 238 *~ 0.1;
#X msg 32 114 1000;
#X connect 0 0 2 0;
#X connect 2 0 14 0;
#X connect 2 1 1 0;
#X connect 3 0 8 0;
#X connect 3 1 4 0;
#X connect 4 0 5 0;
#X connect 6 0 12 0;
#X connect 7 0 13 0;
#X connect 8 0 9 0;
#X connect 9 0 11 0;
#X connect 9 1 10 0;
#X connect 10 0 5 0;
#X connect 12 0 5 0;
#X connect 13 0 5 1;
#X connect 14 0 3 0;
