#N canvas 0 0 1440 797 12;
#X obj 73 -139 readsf~;
#X msg 73 -169 open ../sounds/fx/1.wav \, 1;
#X obj 568 1177 dac~;
#X obj 190 -106 readsf~;
#X obj 100 172 *~ 0.5;
#X msg 190 -136 open ../sounds/fx/2.wav \, 1;
#X obj 225 -36 readsf~;
#X msg 225 -66 open ../sounds/fx/6.wav \, 1;
#X obj 259 92 readsf~;
#X msg 259 65 open ../sounds/kicks/9.wav \, 1;
#X obj 259 17 tgl 15 0 empty empty empty 17 7 0 10 #fcfcfc #000000
#000000 0 1;
#X obj 259 38 metro 500;
#X obj 241 -212 loadbang;
#X obj 496 142 adc~;
#N canvas 281 187 630 372 spectrolog 0;
#N canvas 556 61 872 789 FFT_Analyse 0;
#X obj 101 102 inlet~;
#X obj 101 332 *~;
#X obj 132 331 *~;
#X obj 101 356 +~;
#X obj 102 377 powtodb~;
#N canvas 0 22 346 535 init_input_window 0;
#X obj 73 217 / 10;
#X obj 55 278 line 0 0.1;
#X msg 119 246 0;
#X obj 54 176 t f f b;
#X obj 54 239 pack;
#X obj 55 301 t f f;
#X obj 54 152 - 1;
#X obj 74 114 t f f;
#X obj 55 359 * 3.14159;
#X obj 55 381 sin;
#X msg 55 401 \$1 \$1;
#X obj 55 423 *;
#X text 119 334 0...0.99;
#X text 128 359 0...pi;
#X text 79 423 hanning;
#X msg 55 88 4096;
#X obj 100 88 f 4096;
#X obj 99 60 bng 15 250 50 0 empty empty empty 0 -6 0 8 #fcfcfc #000000
#000000;
#X obj 99 39 loadbang;
#X obj 74 333 / 4096;
#X obj 55 448 tabwrite \$0-window;
#X text 86 381 half-sine;
#X connect 0 0 4 1;
#X connect 1 0 5 0;
#X connect 2 0 1 0;
#X connect 3 0 4 0;
#X connect 3 1 0 0;
#X connect 3 2 2 0;
#X connect 4 0 1 0;
#X connect 5 0 19 0;
#X connect 5 1 20 1;
#X connect 6 0 3 0;
#X connect 7 0 6 0;
#X connect 7 1 19 1;
#X connect 8 0 9 0;
#X connect 9 0 10 0;
#X connect 10 0 11 0;
#X connect 11 0 20 0;
#X connect 15 0 7 0;
#X connect 16 0 7 0;
#X connect 17 0 16 0;
#X connect 18 0 17 0;
#X connect 19 0 8 0;
#X restore 161 276 pd init_input_window;
#N canvas 0 22 450 300 (subpatch) 0;
#X array \$0-lin_scope 2048 float 0;
#X coords 0 100 2047 0 200 140 1;
#X restore 110 621 graph;
#N canvas 0 22 822 328 init_norm 0;
#X obj 43 230 outlet;
#X obj 43 187 - 100;
#X floatatom 43 208 9 0 0 0 - - - 0;
#X text 108 169 leistung - techn. dB;
#X msg 43 69 4096;
#X obj 80 68 f 4096;
#X obj 80 47 bng 15 250 50 0 empty empty empty 0 -6 0 8 #fcfcfc #000000
#000000;
#X obj 80 26 loadbang;
#X obj 43 167 rmstodb;
#X obj 43 110 / 4;
#X text 74 103 faktor 2 wegen hanning;
#X text 74 114 weiterer faktor 2 \, weil wir nur die;
#X text 73 124 erste haelfte des konjungiert komplexen spektrum sehen
;
#X text 108 135 bzw. bearbeiten \, somit nur die haelfte der spektralen
energie;
#X connect 1 0 2 0;
#X connect 2 0 0 0;
#X connect 4 0 9 0;
#X connect 5 0 9 0;
#X connect 6 0 5 0;
#X connect 7 0 6 0;
#X connect 8 0 1 0;
#X connect 9 0 8 0;
#X restore 153 421 pd init_norm;
#X obj 100 231 *~;
#X obj 102 443 -~ 60.206;
#X obj 113 517 *~ 0.98;
#X obj 100 539 +~;
#X obj 101 471 *~ 0.02;
#X msg 314 481 1 \$1;
#X obj 314 502 -;
#X obj 314 458 clip 0 1;
#X obj 314 437 / 100;
#X floatatom 314 413 5 0.5 100 0 - - - 0;
#X obj 333 366 loadbang;
#X obj 100 277 fft~;
#X obj 463 557 line 0 0.1;
#X obj 463 602 / 2;
#X obj 463 622 mtof;
#X msg 463 536 6 \, 273 26.7;
#X obj 463 580 t f f;
#X obj 494 602 - 6;
#X obj 463 642 / 44100;
#X obj 463 663 * 4096;
#X msg 656 633 6;
#X obj 656 653 / 2;
#X obj 656 673 mtof;
#X floatatom 656 693 9 0 0 0 - - - 0;
#X text 723 694 Hz;
#X obj 754 654 / 2;
#X obj 754 673 mtof;
#X floatatom 754 693 9 0 0 0 - - - 0;
#X text 822 693 Hz;
#X msg 754 634 273;
#X obj 656 612 t b b;
#X obj 463 498 tgl 15 0 empty empty empty 0 -6 0 8 #fcfcfc #000000
#000000 0 1;
#X obj 463 458 loadbang;
#X msg 463 478 1;
#X obj 656 592 loadbang;
#X obj 468 245 loadbang;
#X obj 703 102 inlet;
#X obj 130 253 table \$0-window 4096;
#X obj 137 214 tabreceive~ \$0-window;
#X text 353 403 temporal lowpass;
#X text 355 415 parameter between 0 .. 100 %;
#X text 23 23 spectrum~;
#X text 120 23 draws the power of a spectrum in a logarithmic scale
;
#X text 118 36 (by Thomas Musil);
#X obj 113 496 tabreceive~ \$0-lin_scope;
#X obj 100 564 tabsend~ \$0-lin_scope;
#X obj 463 685 tabread4 \$0-lin_scope;
#X obj 468 267 f \$0;
#X text 553 536 transformation to log scale;
#X msg 333 385 100;
#X obj 314 341 max 0.5;
#X obj 314 319 min 100;
#X obj 440 107 inlet;
#X text 96 81 audio sig;
#X text 700 81 ON/OFF;
#X text 427 86 (0 .. 100);
#X text 408 72 temporal lowpass;
#X obj 533 244 bng 15 250 50 0 empty empty empty 0 -6 0 8 #fcfcfc #000000
#000000;
#X obj 463 735 tabwrite \$0-s;
#X msg 468 296 \; \$1-s xticks 0 12 2;
#X msg 491 330 \; \$1-s yticks 0 5 2;
#X obj 462 516 metro 100;
#X obj 704 166 switch~ 4096 2;
#X obj 463 711 clip 0 100;
#X obj 773 101 loadbang;
#X msg 773 123 1;
#X connect 0 0 8 0;
#X connect 1 0 3 0;
#X connect 2 0 3 1;
#X connect 3 0 4 0;
#X connect 4 0 9 0;
#X connect 7 0 9 1;
#X connect 8 0 19 0;
#X connect 9 0 12 0;
#X connect 10 0 11 1;
#X connect 11 0 53 0;
#X connect 12 0 11 0;
#X connect 13 0 14 0;
#X connect 14 0 10 1;
#X connect 15 0 13 0;
#X connect 15 0 12 1;
#X connect 16 0 15 0;
#X connect 17 0 16 0;
#X connect 18 0 57 0;
#X connect 19 0 1 0;
#X connect 19 0 1 1;
#X connect 19 1 2 0;
#X connect 19 1 2 1;
#X connect 20 0 24 0;
#X connect 21 0 22 0;
#X connect 22 0 26 0;
#X connect 23 0 20 0;
#X connect 24 0 21 0;
#X connect 24 1 25 0;
#X connect 25 0 66 1;
#X connect 26 0 27 0;
#X connect 27 0 54 0;
#X connect 28 0 29 0;
#X connect 29 0 30 0;
#X connect 30 0 31 0;
#X connect 33 0 34 0;
#X connect 34 0 35 0;
#X connect 37 0 33 0;
#X connect 38 0 28 0;
#X connect 38 1 37 0;
#X connect 39 0 69 0;
#X connect 40 0 41 0;
#X connect 41 0 39 0;
#X connect 42 0 38 0;
#X connect 43 0 55 0;
#X connect 44 0 70 0;
#X connect 46 0 8 1;
#X connect 52 0 10 0;
#X connect 54 0 71 0;
#X connect 55 0 67 0;
#X connect 55 0 68 0;
#X connect 57 0 17 0;
#X connect 58 0 17 0;
#X connect 59 0 58 0;
#X connect 60 0 59 0;
#X connect 65 0 55 0;
#X connect 69 0 23 0;
#X connect 71 0 66 0;
#X connect 72 0 73 0;
#X connect 73 0 70 0;
#X restore 17 320 pd FFT_Analyse;
#X obj 63 299 inlet;
#X obj 17 299 inlet~;
#X obj 110 299 inlet;
#N canvas 0 22 450 300 (subpatch) 0;
#X array \$0-s 268 float 0;
#X coords 0 100 267 0 267 140 1;
#X restore 23 27 graph;
#X obj 297 42 cnv 15 1 1 empty empty -10 0 0 0 10 #fcfcfc #000000 0
;
#X obj 297 154 cnv 15 1 1 empty empty -90 0 0 0 10 #fcfcfc #000000
0;
#X obj 297 98 cnv 15 1 1 empty empty -50 0 0 0 10 #fcfcfc #000000 0
;
#X obj 297 70 cnv 15 1 1 empty empty -30 0 0 0 10 #fcfcfc #000000 0
;
#X obj 297 126 cnv 15 1 1 empty empty -70 0 0 0 10 #fcfcfc #000000
0;
#X obj 18 171 cnv 15 1 1 empty empty 10 0 5 0 10 #fcfcfc #000000 0
;
#X obj 66 171 cnv 15 1 1 empty empty 40 0 5 0 10 #fcfcfc #000000 0
;
#X obj 115 171 cnv 15 1 1 empty empty 160 0 5 0 10 #fcfcfc #000000
0;
#X obj 162 171 cnv 15 1 1 empty empty 640 0 5 0 10 #fcfcfc #000000
0;
#X obj 210 171 cnv 15 1 1 empty empty 2k56 0 5 0 10 #fcfcfc #000000
0;
#X obj 258 171 cnv 15 1 1 empty empty 10k2 0 5 0 10 #fcfcfc #000000
0;
#X obj 138 184 cnv 15 1 1 empty empty 320 0 5 0 10 #fcfcfc #000000
0;
#X obj 282 184 cnv 15 1 1 empty empty 20k5 0 5 0 10 #fcfcfc #000000
0;
#X obj 42 181 cnv 15 1 1 empty empty 20 0 9 0 10 #fcfcfc #000000 0
;
#X obj 90 184 cnv 15 1 1 empty empty 80 0 5 0 10 #fcfcfc #000000 0
;
#X obj 186 184 cnv 15 1 1 empty empty 1k28 0 5 0 10 #fcfcfc #000000
0;
#X obj 234 184 cnv 15 1 1 empty empty 5k12 0 5 0 10 #fcfcfc #000000
0;
#X obj 46 168 cnv 15 1 1 empty empty | 0 7 0 10 #fcfcfc #000000 0;
#X obj 94 168 cnv 15 1 1 empty empty | 0 7 0 10 #fcfcfc #000000 0;
#X obj 142 168 cnv 15 1 1 empty empty | 0 7 0 10 #fcfcfc #000000 0
;
#X obj 190 168 cnv 15 1 1 empty empty | 0 7 0 10 #fcfcfc #000000 0
;
#X obj 238 168 cnv 15 1 1 empty empty | 0 7 0 10 #fcfcfc #000000 0
;
#X obj 286 168 cnv 15 1 1 empty empty | 0 7 0 10 #fcfcfc #000000 0
;
#X connect 1 0 0 1;
#X connect 2 0 0 0;
#X connect 3 0 0 2;
#X coords 0 -1 1 1 330 210 1 0 0;
#X restore 769 997 pd spectrolog;
#X obj 587 263 bonk~;
#X obj 586 289 bng 15 250 50 0 empty empty empty 17 7 0 10 #fcfcfc
#000000 #000000;
#X obj 587 203 loadbang;
#X msg 587 229 thresh 1 20;
#X floatatom 82 523 5 0 0 0 - - - 0;
#X floatatom 122 501 7 0 0 0 - - - 0;
#X floatatom 163 478 5 0 0 0 - - - 0;
#X obj 82 353 sigmund~ -npts 16384 -hop 8192 -npeak 2 tracks;
#X obj 82 389 route 0 1, f 22;
#X floatatom 214 523 5 0 0 0 - - - 0;
#X floatatom 254 501 7 0 0 0 - - - 0;
#X floatatom 295 478 5 0 0 0 - - - 0;
#X obj 82 431 unpack f f f;
#X obj 214 431 unpack f f f;
#X text 255 524 frequency (Hz.);
#X text 313 501 peak amplitude (linear);
#X text 335 480 flag;
#X obj 84 549 ftom;
#X floatatom 84 574 5 0 0 0 - - - 0;
#X obj 591 1152 *~ 0.22;
#X msg 422 509 60 \, 62 \, 64 \, 65 \, 67;
#X msg 843 513 60 \, 62 \, 64 \, 65 \, 67, f 21;
#X msg 451 612 64 \, 57 \, 65 \, 60 \, 64;
#X msg 470 677 48 \, 64 \, 57 \, 65 \, 60 \, 64;
#X msg 476 697 59 \, 64 \, 57 \, 65 \, 60 \, 64;
#X obj 422 752 trianglepoly~;
#X msg 449 573 64 \, 57 \, 59 \, 65 \, 60 \, 64;
#X msg 467 642 50 \, 57 \, 65 \, 60 \, 64;
#X msg 454 543 52 \, 57 \, 64 \, 60 \, 64 \, 65;
#X msg 884 725 48 \, 57 \, 60 \, 64 \, 65;
#X msg 909 753 50 \, 57 \, 60 \, 64 \, 65;
#X floatatom 677 701 5 0 0 0 - - - 0;
#X msg 634 919 \$1 \, 57 \, 60 \, 64 \, 65;
#X obj 675 658 bng 15 250 50 0 empty empty empty 17 7 0 10 #fcfcfc
#000000 #000000;
#X msg 876 694 45 \, 57 \, 60 \, 64 \, 65;
#X msg 917 789 43 \, 57 \, 60 \, 64 \, 65;
#X msg 931 825 39 \, 57 \, 60 \, 64 \, 65;
#X msg 798 611 39 \, 45 \, 43 \, 48 \, 50;
#X obj 798 636 + 12;
#X obj 144 689 sawpoly~;
#X obj 271 871 re.spring~;
#X obj 134 634 re.plate~;
#X obj 74 1060 re.plate~, f 37;
#X obj 117 987 hsl 128 16 0 1 0 0 empty \$0-bandwidth BANDWIDTH -2
-6 0 12 #7c7c7c #fcfcfc #000000 0 1;
#X obj 114 1029 line~;
#X floatatom 195 1003 0 0 0 0 - - - 0;
#X msg 114 1008 \$1 20;
#X obj 257 987 hsl 128 16 0 1 0 0 empty \$0-damping DAMPING -2 -6 0
12 #7c7c7c #fcfcfc #000000 0 1;
#X obj 254 1029 line~;
#X floatatom 335 1003 0 0 0 0 - - - 0;
#X msg 254 1008 \$1 20;
#X obj 397 987 hsl 128 16 0 1 0 0 empty \$0-gain GAIN -2 -6 0 12 #7c7c7c
#fcfcfc #000000 0 1;
#X obj 394 1029 line~;
#X floatatom 475 1003 0 0 0 0 - - - 0;
#X msg 394 1008 \$1 20;
#X obj 423 779 re.spring~;
#X obj 1069 594 +;
#X obj 1087 565 random 11;
#X obj 1085 532 bng 15 250 50 0 empty empty empty 17 7 0 10 #fcfcfc
#000000 #000000;
#X connect 0 0 4 0;
#X connect 0 1 1 0;
#X connect 1 0 0 0;
#X connect 3 0 4 0;
#X connect 3 1 5 0;
#X connect 5 0 3 0;
#X connect 6 0 4 0;
#X connect 6 1 7 0;
#X connect 7 0 6 0;
#X connect 8 0 4 0;
#X connect 9 0 8 0;
#X connect 10 0 11 0;
#X connect 11 0 9 0;
#X connect 12 0 7 0;
#X connect 12 0 5 0;
#X connect 12 0 1 0;
#X connect 13 0 15 0;
#X connect 13 0 22 0;
#X connect 15 0 16 0;
#X connect 17 0 18 0;
#X connect 18 0 15 0;
#X connect 19 0 32 0;
#X connect 22 0 23 0;
#X connect 23 0 27 0;
#X connect 23 1 28 0;
#X connect 27 0 19 0;
#X connect 27 1 20 0;
#X connect 27 2 21 0;
#X connect 28 0 24 0;
#X connect 28 1 25 0;
#X connect 28 2 26 0;
#X connect 32 0 33 0;
#X connect 34 0 2 0;
#X connect 34 0 2 1;
#X connect 34 0 14 0;
#X connect 35 0 40 0;
#X connect 36 0 54 0;
#X connect 37 0 40 0;
#X connect 38 0 40 0;
#X connect 39 0 71 0;
#X connect 40 0 34 0;
#X connect 40 0 70 0;
#X connect 41 0 40 0;
#X connect 42 0 40 0;
#X connect 43 0 40 0;
#X connect 44 0 40 0;
#X connect 45 0 40 0;
#X connect 46 0 47 0;
#X connect 47 0 40 0;
#X connect 48 0 46 0;
#X connect 49 0 40 0;
#X connect 50 0 40 0;
#X connect 51 0 40 0;
#X connect 52 0 53 0;
#X connect 53 0 40 0;
#X connect 54 0 55 0;
#X connect 54 0 57 0;
#X connect 55 0 34 0;
#X connect 57 0 34 0;
#X connect 57 1 34 0;
#X connect 58 0 60 0;
#X connect 58 0 61 0;
#X connect 59 0 57 1;
#X connect 61 0 59 0;
#X connect 62 0 64 0;
#X connect 62 0 65 0;
#X connect 63 0 57 2;
#X connect 65 0 63 0;
#X connect 66 0 68 0;
#X connect 66 0 69 0;
#X connect 67 0 57 3;
#X connect 69 0 67 0;
#X connect 70 0 34 0;
#X connect 71 0 40 0;
#X connect 72 0 71 1;
#X connect 73 0 72 0;
#X connect 73 0 39 0;
