#N canvas 403 435 363 300 12;
#X obj 10 60 osc~;
#X obj 10 9 inlet;
#X obj 10 34 mtof;
#X obj 9 192 outlet~;
#X obj 10 164 *~;
#X obj 29 139 vline~;
#X obj 29 87 b;
#X msg 29 113 0 \, 1 1 0 \, 0 101 10;
#X connect 0 0 4 0;
#X connect 1 0 2 0;
#X connect 2 0 0 0;
#X connect 2 0 6 0;
#X connect 4 0 3 0;
#X connect 5 0 4 1;
#X connect 6 0 7 0;
#X connect 7 0 5 0;
