#N canvas 823 438 438 343 12;
#X declare -path ./abs/pd-bloscabs;
#X obj 10 9 inlet;
#X obj 10 34 mtof;
#X obj 10 250 outlet~;
#X obj 11 222 *~;
#X obj 30 197 vline~;
#X obj 30 145 b;
#X msg 30 171 0 \, 1 1 0 \, 0 11 10;
#X obj 72 19 declare -path ./abs/pd-bloscabs;
#X obj 12 111 blsquare~;
#X connect 0 0 1 0;
#X connect 1 0 5 0;
#X connect 1 0 8 0;
#X connect 3 0 2 0;
#X connect 4 0 3 1;
#X connect 5 0 6 0;
#X connect 6 0 4 0;
#X connect 8 0 3 0;
